<svg width="500" height="500" viewBox="0 0 500 500" fill="none" xmlns="http://www.w3.org/2000/svg">
<g clip-path="url(#clip0_1_2)">
<path d="M250.718 23.53L450.4 138.817L450.401 302.829L420.4 285.508L420.401 156.137L250.718 58.1709L81.0358 156.137L81.0359 352.069L250.719 450.035L362.757 385.349L392.757 402.67L250.718 484.676L51.0361 369.39L51.0367 138.816L250.718 23.53Z" fill="black"/>
<path d="M189.91 119C197.634 119 243.983 119.702 243.983 119.702L247.461 131.792H256.471L258.55 119.702H312.61C315.613 122.31 318.986 129.089 308.451 135.347C295.283 143.17 278.649 143.881 274.491 164.504C273.936 166.211 271.488 172.8 270.332 175.882L231.52 163.793C229.441 162.133 225.144 158.246 224.589 155.97C223.896 153.126 212.807 141.036 187.163 131.792C183.589 130.503 184.994 119 189.91 119Z" fill="black"/>
<path fill-rule="evenodd" clip-rule="evenodd" d="M267.845 203.161L267.841 203.047C267.772 200.646 267.708 198.426 272.072 193.438C277.69 188.522 277.69 185.011 272.072 182.904C272.072 182.904 236.96 171.769 234.151 170.966C229.938 169.762 225.022 171.668 222.476 175.18C222.213 176.584 222.558 177.035 222.915 177.989C229.235 189.225 229.235 185.011 231.342 200.461C231.342 202.146 232.747 203.504 233.449 203.972L267.859 213.101V203.972C267.859 203.696 267.852 203.427 267.845 203.161Z" fill="black"/>
<path fill-rule="evenodd" clip-rule="evenodd" d="M264.814 340.796L264.811 340.698C264.752 338.635 264.697 336.727 268.449 332.441C273.28 328.217 273.28 325.199 268.449 323.389C268.449 323.389 238.258 313.82 235.843 313.131C232.22 312.096 227.993 313.734 225.804 316.751C225.578 317.958 225.874 318.346 226.182 319.165C231.616 328.82 231.616 325.2 233.427 338.475C233.427 339.923 234.635 341.09 235.239 341.492L264.827 349.337V341.492C264.827 341.256 264.821 341.024 264.814 340.796Z" fill="black"/>
<path fill-rule="evenodd" clip-rule="evenodd" d="M265.717 340.873L265.715 340.775C265.655 338.712 265.6 336.804 269.353 332.518C274.183 328.294 274.183 325.277 269.353 323.466C269.353 323.466 239.161 313.897 236.746 313.208C233.123 312.173 228.896 313.811 226.707 316.828C226.481 318.035 226.777 318.423 227.085 319.242C232.519 328.897 232.519 325.277 234.331 338.552C234.331 340.001 235.538 341.167 236.142 341.569L265.73 349.414V341.569C265.73 341.333 265.724 341.101 265.717 340.873Z" fill="black"/>
<path fill-rule="evenodd" clip-rule="evenodd" d="M263.105 368.795L263.103 368.713C263.052 366.967 263.005 365.352 266.189 361.726C270.288 358.151 270.288 355.598 266.189 354.067C266.189 354.067 240.573 345.97 238.523 345.386C235.449 344.511 231.863 345.897 230.005 348.45C229.813 349.471 230.065 349.799 230.326 350.492C234.937 358.662 234.937 355.598 236.474 366.832C236.474 368.057 237.498 369.044 238.011 369.385L263.115 376.022V369.385C263.115 369.184 263.11 368.989 263.105 368.795Z" fill="black"/>
<path d="M262.241 381.64L239.067 373.214C236.96 372.447 234.151 375.32 235.556 378.831C236.679 381.64 244.451 408.092 248.196 420.966L248.898 425.882H251.005L255.921 402.708C256.389 400.133 258.168 393.86 261.539 389.365C264.91 384.871 263.411 382.343 262.241 381.64Z" fill="black"/>
<g clip-path="url(#clip1_1_2)">
<path d="M142.646 289.466H137.007C136.86 289.466 136.787 289.385 136.787 289.222V260.706H130.293C130.13 260.706 130.049 260.625 130.049 260.462L130.098 254.871C130.098 254.741 130.163 254.676 130.293 254.676H149.287C149.466 254.676 149.556 254.741 149.556 254.871V260.462C149.556 260.625 149.491 260.706 149.36 260.706H142.793L142.842 289.222C142.842 289.385 142.777 289.466 142.646 289.466ZM178.354 289.466H162.192C162.062 289.466 161.997 289.385 161.997 289.222L162.046 254.871C162.046 254.741 162.111 254.676 162.241 254.676H178.306C178.436 254.676 178.501 254.757 178.501 254.92V260.511C178.501 260.641 178.436 260.706 178.306 260.706H168.052V268.519H178.306C178.436 268.519 178.501 268.584 178.501 268.714L178.55 274.378C178.55 274.508 178.485 274.573 178.354 274.573H168.052V283.314H178.354C178.485 283.314 178.55 283.395 178.55 283.558V289.271C178.55 289.401 178.485 289.466 178.354 289.466ZM198.853 289.466H193.188C193.058 289.466 192.993 289.385 192.993 289.222L193.091 254.871C193.091 254.741 193.156 254.676 193.286 254.676H203.394C205.2 254.676 206.86 255.115 208.374 255.994C209.888 256.873 211.092 258.053 211.987 259.534C212.899 261.015 213.354 262.692 213.354 264.564C213.354 265.784 213.167 266.891 212.793 267.884C212.419 268.877 211.979 269.715 211.475 270.399C210.986 271.082 210.539 271.587 210.132 271.912C211.938 273.914 212.842 276.266 212.842 278.968L212.891 289.222C212.891 289.385 212.809 289.466 212.646 289.466H206.982C206.852 289.466 206.787 289.417 206.787 289.319V278.968C206.787 277.763 206.364 276.722 205.518 275.843C204.671 274.964 203.63 274.525 202.393 274.525H199.097L199.048 289.222C199.048 289.385 198.983 289.466 198.853 289.466ZM203.394 260.657H199.097V268.519H203.394C204.419 268.519 205.33 268.136 206.128 267.371C206.942 266.606 207.349 265.67 207.349 264.564C207.349 263.506 206.958 262.594 206.177 261.829C205.396 261.048 204.468 260.657 203.394 260.657ZM232.974 289.466H227.31C227.179 289.466 227.114 289.385 227.114 289.222L227.212 254.871C227.212 254.741 227.277 254.676 227.407 254.676H233.511C233.641 254.676 233.755 254.741 233.853 254.871L238.418 261.463L242.959 254.871C243.057 254.741 243.179 254.676 243.325 254.676H249.453C249.6 254.676 249.673 254.741 249.673 254.871L249.771 289.222C249.771 289.385 249.705 289.466 249.575 289.466H243.911C243.781 289.466 243.716 289.385 243.716 289.222L243.667 263.709L238.418 271.326L233.218 263.709L233.169 289.222C233.169 289.385 233.104 289.466 232.974 289.466ZM269.878 289.466H264.214C264.051 289.466 263.97 289.385 263.97 289.222L264.019 254.871C264.019 254.741 264.084 254.676 264.214 254.676H269.829C269.959 254.676 270.024 254.741 270.024 254.871L270.073 289.222C270.073 289.385 270.008 289.466 269.878 289.466ZM289.912 289.466H284.907C284.647 289.466 284.517 289.352 284.517 289.124L284.468 255.067C284.468 254.806 284.598 254.676 284.858 254.676H289.375L297.822 274.378L297.578 255.067C297.578 254.806 297.725 254.676 298.018 254.676H302.974C303.169 254.676 303.267 254.806 303.267 255.067L303.315 289.173C303.315 289.368 303.234 289.466 303.071 289.466H298.677L290.01 271.058L290.376 289.075C290.376 289.336 290.221 289.466 289.912 289.466ZM315.977 289.222L322.178 254.871C322.21 254.741 322.292 254.676 322.422 254.676H329.673C329.803 254.676 329.884 254.741 329.917 254.871L335.874 289.222C335.89 289.385 335.825 289.466 335.679 289.466H330.137C329.974 289.466 329.884 289.385 329.868 289.222L329.331 285.56H322.52L321.982 289.222C321.966 289.385 321.885 289.466 321.738 289.466H316.172C316.042 289.466 315.977 289.385 315.977 289.222ZM326.279 266.175L325.986 264.319L325.767 266.175L323.521 280.213H328.33L326.279 266.175ZM365.356 289.466H349.194C349.064 289.466 348.999 289.385 348.999 289.222L349.048 254.92C349.048 254.757 349.129 254.676 349.292 254.676H354.858C355.021 254.676 355.103 254.757 355.103 254.92L355.054 283.314H365.356C365.519 283.314 365.601 283.395 365.601 283.558V289.222C365.601 289.385 365.519 289.466 365.356 289.466Z" fill="black"/>
<path d="M136.787 260.706H137.787V259.706H136.787V260.706ZM130.049 260.462L129.049 260.453V260.462H130.049ZM130.098 254.871L131.098 254.88V254.871H130.098ZM142.793 260.706V259.706H141.791L141.793 260.708L142.793 260.706ZM142.842 289.222H143.842L143.842 289.22L142.842 289.222ZM142.646 289.466V288.466H137.007V289.466V290.466H142.646V289.466ZM137.007 289.466V288.466C137.117 288.466 137.374 288.501 137.585 288.736C137.779 288.951 137.787 289.174 137.787 289.222H136.787H135.787C135.787 289.433 135.832 289.778 136.099 290.074C136.383 290.39 136.751 290.466 137.007 290.466V289.466ZM136.787 289.222H137.787V260.706H136.787H135.787V289.222H136.787ZM136.787 260.706V259.706H130.293V260.706V261.706H136.787V260.706ZM130.293 260.706V259.706C130.366 259.706 130.604 259.725 130.817 259.938C131.03 260.151 131.049 260.389 131.049 260.462H130.049H129.049C129.049 260.698 129.108 261.058 129.403 261.352C129.697 261.647 130.057 261.706 130.293 261.706V260.706ZM130.049 260.462L131.049 260.471L131.098 254.88L130.098 254.871L129.098 254.863L129.049 260.453L130.049 260.462ZM130.098 254.871H131.098C131.098 254.96 131.075 255.211 130.854 255.432C130.632 255.653 130.382 255.676 130.293 255.676V254.676V253.676C130.074 253.676 129.726 253.731 129.439 254.018C129.153 254.304 129.098 254.652 129.098 254.871H130.098ZM130.293 254.676V255.676H149.287V254.676V253.676H130.293V254.676ZM149.287 254.676V255.676C149.285 255.676 149.103 255.681 148.9 255.533C148.788 255.452 148.692 255.339 148.63 255.202C148.57 255.071 148.556 254.953 148.556 254.871H149.556H150.556C150.556 254.55 150.428 254.172 150.077 253.916C149.785 253.704 149.468 253.676 149.287 253.676V254.676ZM149.556 254.871H148.556V260.462H149.556H150.556V254.871H149.556ZM149.556 260.462H148.556C148.556 260.437 148.556 260.232 148.726 260.02C148.93 259.766 149.205 259.706 149.36 259.706V260.706V261.706C149.646 261.706 150.019 261.606 150.288 261.27C150.522 260.977 150.556 260.65 150.556 260.462H149.556ZM149.36 260.706V259.706H142.793V260.706V261.706H149.36V260.706ZM142.793 260.706L141.793 260.708L141.842 289.224L142.842 289.222L143.842 289.22L143.793 260.704L142.793 260.706ZM142.842 289.222H141.842C141.842 289.196 141.843 288.992 142.012 288.78C142.216 288.526 142.491 288.466 142.646 288.466V289.466V290.466C142.932 290.466 143.305 290.366 143.574 290.03C143.809 289.736 143.842 289.41 143.842 289.222H142.842ZM161.997 289.222L160.997 289.22V289.222H161.997ZM162.046 254.871L163.046 254.873V254.871H162.046ZM168.052 260.706V259.706H167.052V260.706H168.052ZM168.052 268.519H167.052V269.519H168.052V268.519ZM178.501 268.714H177.501L177.501 268.723L178.501 268.714ZM178.55 274.378H179.55L179.55 274.369L178.55 274.378ZM168.052 274.573V273.573H167.052V274.573H168.052ZM168.052 283.314H167.052V284.314H168.052V283.314ZM178.354 289.466V288.466H162.192V289.466V290.466H178.354V289.466ZM162.192 289.466V288.466C162.348 288.466 162.623 288.526 162.827 288.78C162.996 288.992 162.997 289.196 162.997 289.222H161.997H160.997C160.997 289.41 161.03 289.736 161.265 290.03C161.534 290.366 161.907 290.466 162.192 290.466V289.466ZM161.997 289.222L162.997 289.223L163.046 254.873L162.046 254.871L161.046 254.87L160.997 289.22L161.997 289.222ZM162.046 254.871H163.046C163.046 254.96 163.023 255.211 162.802 255.432C162.581 255.653 162.33 255.676 162.241 255.676V254.676V253.676C162.022 253.676 161.674 253.731 161.388 254.018C161.101 254.304 161.046 254.652 161.046 254.871H162.046ZM162.241 254.676V255.676H178.306V254.676V253.676H162.241V254.676ZM178.306 254.676V255.676C178.15 255.676 177.875 255.616 177.671 255.362C177.502 255.15 177.501 254.946 177.501 254.92H178.501H179.501C179.501 254.732 179.468 254.406 179.233 254.112C178.964 253.776 178.591 253.676 178.306 253.676V254.676ZM178.501 254.92H177.501V260.511H178.501H179.501V254.92H178.501ZM178.501 260.511H177.501C177.501 260.422 177.524 260.171 177.745 259.95C177.966 259.729 178.217 259.706 178.306 259.706V260.706V261.706C178.525 261.706 178.873 261.651 179.159 261.364C179.445 261.078 179.501 260.73 179.501 260.511H178.501ZM178.306 260.706V259.706H168.052V260.706V261.706H178.306V260.706ZM168.052 260.706H167.052V268.519H168.052H169.052V260.706H168.052ZM168.052 268.519V269.519H178.306V268.519V267.519H168.052V268.519ZM178.306 268.519V269.519C178.217 269.519 177.966 269.496 177.745 269.275C177.524 269.054 177.501 268.803 177.501 268.714H178.501H179.501C179.501 268.495 179.445 268.147 179.159 267.86C178.873 267.574 178.525 267.519 178.306 267.519V268.519ZM178.501 268.714L177.501 268.723L177.55 274.387L178.55 274.378L179.55 274.369L179.501 268.705L178.501 268.714ZM178.55 274.378H177.55C177.55 274.289 177.573 274.039 177.794 273.817C178.015 273.596 178.265 273.573 178.354 273.573V274.573V275.573C178.574 275.573 178.922 275.518 179.208 275.232C179.494 274.945 179.55 274.597 179.55 274.378H178.55ZM178.354 274.573V273.573H168.052V274.573V275.573H178.354V274.573ZM168.052 274.573H167.052V283.314H168.052H169.052V274.573H168.052ZM168.052 283.314V284.314H178.354V283.314V282.314H168.052V283.314ZM178.354 283.314V284.314C178.199 284.314 177.924 284.254 177.72 283.999C177.551 283.787 177.55 283.583 177.55 283.558H178.55H179.55C179.55 283.37 179.517 283.043 179.282 282.75C179.013 282.414 178.64 282.314 178.354 282.314V283.314ZM178.55 283.558H177.55V289.271H178.55H179.55V283.558H178.55ZM178.55 289.271H177.55C177.55 289.182 177.573 288.931 177.794 288.71C178.015 288.489 178.265 288.466 178.354 288.466V289.466V290.466C178.574 290.466 178.922 290.41 179.208 290.124C179.494 289.838 179.55 289.49 179.55 289.271H178.55ZM192.993 289.222L191.993 289.219V289.222H192.993ZM193.091 254.871L194.091 254.874V254.871H193.091ZM211.987 259.534L211.131 260.052L211.136 260.058L211.987 259.534ZM211.475 270.399L210.67 269.805L210.665 269.811L210.661 269.817L211.475 270.399ZM210.132 271.912L209.507 271.131L208.678 271.794L209.389 272.582L210.132 271.912ZM212.842 278.968H211.842L211.842 278.973L212.842 278.968ZM212.891 289.222H213.891L213.891 289.217L212.891 289.222ZM199.097 274.525V273.525H198.1L198.097 274.521L199.097 274.525ZM199.048 289.222L198.048 289.219V289.222H199.048ZM199.097 260.657V259.657H198.097V260.657H199.097ZM199.097 268.519H198.097V269.519H199.097V268.519ZM206.128 267.371L205.443 266.643L205.436 266.65L206.128 267.371ZM206.177 261.829L205.47 262.536L205.477 262.544L206.177 261.829ZM198.853 289.466V288.466H193.188V289.466V290.466H198.853V289.466ZM193.188 289.466V288.466C193.344 288.466 193.619 288.526 193.823 288.78C193.992 288.992 193.993 289.196 193.993 289.222H192.993H191.993C191.993 289.41 192.026 289.736 192.261 290.03C192.53 290.366 192.903 290.466 193.188 290.466V289.466ZM192.993 289.222L193.993 289.225L194.091 254.874L193.091 254.871L192.091 254.868L191.993 289.219L192.993 289.222ZM193.091 254.871H194.091C194.091 254.96 194.068 255.211 193.847 255.432C193.626 255.653 193.375 255.676 193.286 255.676V254.676V253.676C193.067 253.676 192.719 253.731 192.433 254.018C192.146 254.304 192.091 254.652 192.091 254.871H193.091ZM193.286 254.676V255.676H203.394V254.676V253.676H193.286V254.676ZM203.394 254.676V255.676C205.03 255.676 206.516 256.072 207.872 256.859L208.374 255.994L208.876 255.13C207.205 254.159 205.371 253.676 203.394 253.676V254.676ZM208.374 255.994L207.872 256.859C209.242 257.655 210.324 258.716 211.131 260.052L211.987 259.534L212.843 259.017C211.86 257.391 210.533 256.092 208.876 255.13L208.374 255.994ZM211.987 259.534L211.136 260.058C211.943 261.37 212.354 262.862 212.354 264.564H213.354H214.354C214.354 262.521 213.855 260.661 212.839 259.01L211.987 259.534ZM213.354 264.564H212.354C212.354 265.682 212.183 266.667 211.857 267.531L212.793 267.884L213.729 268.237C214.151 267.116 214.354 265.887 214.354 264.564H213.354ZM212.793 267.884L211.857 267.531C211.508 268.458 211.108 269.211 210.67 269.805L211.475 270.399L212.279 270.992C212.85 270.219 213.33 269.295 213.729 268.237L212.793 267.884ZM211.475 270.399L210.661 269.817C210.198 270.466 209.812 270.888 209.507 271.131L210.132 271.912L210.757 272.693C211.266 272.286 211.775 271.699 212.288 270.98L211.475 270.399ZM210.132 271.912L209.389 272.582C211.03 274.4 211.842 276.513 211.842 278.968H212.842H213.842C213.842 276.019 212.847 273.428 210.874 271.242L210.132 271.912ZM212.842 278.968L211.842 278.973L211.891 289.227L212.891 289.222L213.891 289.217L213.842 278.963L212.842 278.968ZM212.891 289.222H211.891C211.891 289.149 211.909 288.911 212.122 288.698C212.335 288.485 212.574 288.466 212.646 288.466V289.466V290.466C212.882 290.466 213.242 290.406 213.537 290.112C213.831 289.818 213.891 289.457 213.891 289.222H212.891ZM212.646 289.466V288.466H206.982V289.466V290.466H212.646V289.466ZM206.982 289.466V288.466C207.013 288.466 207.219 288.467 207.436 288.629C207.707 288.833 207.787 289.124 207.787 289.319H206.787H205.787C205.787 289.612 205.9 289.977 206.236 290.229C206.518 290.441 206.821 290.466 206.982 290.466V289.466ZM206.787 289.319H207.787V278.968H206.787H205.787V289.319H206.787ZM206.787 278.968H207.787C207.787 277.501 207.261 276.212 206.238 275.149L205.518 275.843L204.797 276.537C205.467 277.232 205.787 278.026 205.787 278.968H206.787ZM205.518 275.843L206.238 275.149C205.2 274.072 203.897 273.525 202.393 273.525V274.525V275.525C203.362 275.525 204.142 275.856 204.797 276.537L205.518 275.843ZM202.393 274.525V273.525H199.097V274.525V275.525H202.393V274.525ZM199.097 274.525L198.097 274.521L198.048 289.219L199.048 289.222L200.048 289.225L200.097 274.528L199.097 274.525ZM199.048 289.222H198.048C198.048 289.196 198.049 288.992 198.218 288.78C198.422 288.526 198.697 288.466 198.853 288.466V289.466V290.466C199.138 290.466 199.511 290.366 199.78 290.03C200.015 289.736 200.048 289.41 200.048 289.222H199.048ZM203.394 260.657V259.657H199.097V260.657V261.657H203.394V260.657ZM199.097 260.657H198.097V268.519H199.097H200.097V260.657H199.097ZM199.097 268.519V269.519H203.394V268.519V267.519H199.097V268.519ZM203.394 268.519V269.519C204.698 269.519 205.852 269.021 206.82 268.093L206.128 267.371L205.436 266.65C204.808 267.251 204.14 267.519 203.394 267.519V268.519ZM206.128 267.371L206.813 268.1C207.826 267.148 208.349 265.949 208.349 264.564H207.349H206.349C206.349 265.392 206.058 266.065 205.443 266.643L206.128 267.371ZM207.349 264.564H208.349C208.349 263.227 207.843 262.061 206.876 261.115L206.177 261.829L205.477 262.544C206.073 263.128 206.349 263.784 206.349 264.564H207.349ZM206.177 261.829L206.884 261.122C205.921 260.159 204.741 259.657 203.394 259.657V260.657V261.657C204.194 261.657 204.87 261.937 205.47 262.536L206.177 261.829ZM227.114 289.222L226.114 289.219V289.222H227.114ZM227.212 254.871L228.212 254.874V254.871H227.212ZM233.853 254.871L234.675 254.302L234.664 254.286L234.653 254.271L233.853 254.871ZM238.418 261.463L237.596 262.032L238.42 263.223L239.241 262.03L238.418 261.463ZM242.959 254.871L242.159 254.271L242.147 254.287L242.135 254.304L242.959 254.871ZM249.673 254.871H248.673L248.673 254.874L249.673 254.871ZM249.771 289.222H250.771L250.771 289.219L249.771 289.222ZM243.716 289.222H244.716V289.22L243.716 289.222ZM243.667 263.709L244.667 263.707L244.661 260.505L242.844 263.142L243.667 263.709ZM238.418 271.326L237.592 271.89L238.414 273.094L239.241 271.894L238.418 271.326ZM233.218 263.709L234.044 263.145L232.224 260.48L232.218 263.707L233.218 263.709ZM233.169 289.222L232.169 289.22V289.222H233.169ZM232.974 289.466V288.466H227.31V289.466V290.466H232.974V289.466ZM227.31 289.466V288.466C227.465 288.466 227.74 288.526 227.944 288.78C228.114 288.992 228.114 289.196 228.114 289.222H227.114H226.114C226.114 289.41 226.148 289.736 226.382 290.03C226.651 290.366 227.024 290.466 227.31 290.466V289.466ZM227.114 289.222L228.114 289.225L228.212 254.874L227.212 254.871L226.212 254.868L226.114 289.219L227.114 289.222ZM227.212 254.871H228.212C228.212 254.96 228.189 255.211 227.968 255.432C227.747 255.653 227.496 255.676 227.407 255.676V254.676V253.676C227.188 253.676 226.84 253.731 226.554 254.018C226.267 254.304 226.212 254.652 226.212 254.871H227.212ZM227.407 254.676V255.676H233.511V254.676V253.676H227.407V254.676ZM233.511 254.676V255.676C233.4 255.676 233.291 255.646 233.198 255.593C233.111 255.544 233.067 255.49 233.053 255.471L233.853 254.871L234.653 254.271C234.418 253.959 234.034 253.676 233.511 253.676V254.676ZM233.853 254.871L233.03 255.441L237.596 262.032L238.418 261.463L239.24 260.894L234.675 254.302L233.853 254.871ZM238.418 261.463L239.241 262.03L243.782 255.439L242.959 254.871L242.135 254.304L237.594 260.896L238.418 261.463ZM242.959 254.871L243.759 255.471C243.735 255.503 243.683 255.56 243.594 255.607C243.502 255.656 243.406 255.676 243.325 255.676V254.676V253.676C242.826 253.676 242.421 253.921 242.159 254.271L242.959 254.871ZM243.325 254.676V255.676H249.453V254.676V253.676H243.325V254.676ZM249.453 254.676V255.676C249.399 255.676 249.172 255.667 248.954 255.472C248.712 255.258 248.673 254.993 248.673 254.871H249.673H250.673C250.673 254.619 250.597 254.257 250.282 253.977C249.99 253.718 249.653 253.676 249.453 253.676V254.676ZM249.673 254.871L248.673 254.874L248.771 289.225L249.771 289.222L250.771 289.219L250.673 254.868L249.673 254.871ZM249.771 289.222H248.771C248.771 289.196 248.771 288.992 248.941 288.78C249.144 288.526 249.42 288.466 249.575 288.466V289.466V290.466C249.861 290.466 250.234 290.366 250.503 290.03C250.737 289.736 250.771 289.41 250.771 289.222H249.771ZM249.575 289.466V288.466H243.911V289.466V290.466H249.575V289.466ZM243.911 289.466V288.466C244.067 288.466 244.342 288.526 244.546 288.78C244.715 288.992 244.716 289.196 244.716 289.222H243.716H242.716C242.716 289.41 242.749 289.736 242.984 290.03C243.253 290.366 243.625 290.466 243.911 290.466V289.466ZM243.716 289.222L244.716 289.22L244.667 263.707L243.667 263.709L242.667 263.711L242.716 289.224L243.716 289.222ZM243.667 263.709L242.844 263.142L237.595 270.759L238.418 271.326L239.241 271.894L244.49 264.277L243.667 263.709ZM238.418 271.326L239.244 270.762L234.044 263.145L233.218 263.709L232.392 264.273L237.592 271.89L238.418 271.326ZM233.218 263.709L232.218 263.707L232.169 289.22L233.169 289.222L234.169 289.224L234.218 263.711L233.218 263.709ZM233.169 289.222H232.169C232.169 289.196 232.17 288.992 232.339 288.78C232.543 288.526 232.818 288.466 232.974 288.466V289.466V290.466C233.259 290.466 233.632 290.366 233.901 290.03C234.136 289.736 234.169 289.41 234.169 289.222H233.169ZM263.97 289.222L262.97 289.22V289.222H263.97ZM264.019 254.871L265.019 254.873V254.871H264.019ZM270.024 254.871H269.024V254.873L270.024 254.871ZM270.073 289.222H271.073V289.22L270.073 289.222ZM269.878 289.466V288.466H264.214V289.466V290.466H269.878V289.466ZM264.214 289.466V288.466C264.287 288.466 264.525 288.485 264.738 288.698C264.951 288.911 264.97 289.149 264.97 289.222H263.97H262.97C262.97 289.457 263.029 289.818 263.324 290.112C263.618 290.406 263.978 290.466 264.214 290.466V289.466ZM263.97 289.222L264.97 289.223L265.019 254.873L264.019 254.871L263.019 254.87L262.97 289.22L263.97 289.222ZM264.019 254.871H265.019C265.019 254.96 264.996 255.211 264.774 255.432C264.553 255.653 264.303 255.676 264.214 255.676V254.676V253.676C263.995 253.676 263.647 253.731 263.36 254.018C263.074 254.304 263.019 254.652 263.019 254.871H264.019ZM264.214 254.676V255.676H269.829V254.676V253.676H264.214V254.676ZM269.829 254.676V255.676C269.74 255.676 269.49 255.653 269.268 255.432C269.047 255.211 269.024 254.96 269.024 254.871H270.024H271.024C271.024 254.652 270.969 254.304 270.683 254.018C270.396 253.731 270.048 253.676 269.829 253.676V254.676ZM270.024 254.871L269.024 254.873L269.073 289.223L270.073 289.222L271.073 289.22L271.024 254.87L270.024 254.871ZM270.073 289.222H269.073C269.073 289.196 269.074 288.992 269.244 288.78C269.447 288.526 269.722 288.466 269.878 288.466V289.466V290.466C270.164 290.466 270.537 290.366 270.805 290.03C271.04 289.736 271.073 289.41 271.073 289.222H270.073ZM284.517 289.124H285.517V289.123L284.517 289.124ZM284.468 255.067H283.468V255.068L284.468 255.067ZM289.375 254.676L290.294 254.282L290.034 253.676H289.375V254.676ZM297.822 274.378L296.903 274.772L298.822 274.365L297.822 274.378ZM297.578 255.067H296.578L296.578 255.079L297.578 255.067ZM303.267 255.067H302.267V255.068L303.267 255.067ZM303.315 289.173H304.315V289.172L303.315 289.173ZM298.677 289.466L297.772 289.892L298.042 290.466H298.677V289.466ZM290.01 271.058L290.915 270.632L289.01 271.078L290.01 271.058ZM290.376 289.075H291.376V289.065L291.376 289.055L290.376 289.075ZM289.912 289.466V288.466H284.907V289.466V290.466H289.912V289.466ZM284.907 289.466V288.466C284.912 288.466 284.953 288.466 285.016 288.485C285.083 288.504 285.178 288.545 285.273 288.628C285.488 288.817 285.517 289.047 285.517 289.124H284.517H283.517C283.517 289.43 283.61 289.831 283.956 290.133C284.276 290.413 284.653 290.466 284.907 290.466V289.466ZM284.517 289.124L285.517 289.123L285.468 255.065L284.468 255.067L283.468 255.068L283.517 289.126L284.517 289.124ZM284.468 255.067H285.468C285.468 255.09 285.461 255.292 285.273 255.481C285.084 255.669 284.882 255.676 284.858 255.676V254.676V253.676C284.574 253.676 284.177 253.748 283.858 254.066C283.54 254.385 283.468 254.782 283.468 255.067H284.468ZM284.858 254.676V255.676H289.375V254.676V253.676H284.858V254.676ZM289.375 254.676L288.456 255.07L296.903 274.772L297.822 274.378L298.741 273.984L290.294 254.282L289.375 254.676ZM297.822 274.378L298.822 274.365L298.578 255.054L297.578 255.067L296.578 255.079L296.822 274.391L297.822 274.378ZM297.578 255.067H298.578C298.578 255.123 298.557 255.339 298.352 255.521C298.262 255.601 298.172 255.641 298.109 255.659C298.079 255.668 298.055 255.672 298.041 255.674C298.026 255.676 298.018 255.676 298.018 255.676V254.676V253.676C297.744 253.676 297.352 253.734 297.024 254.026C296.673 254.338 296.578 254.75 296.578 255.067H297.578ZM298.018 254.676V255.676H302.974V254.676V253.676H298.018V254.676ZM302.974 254.676V255.676C302.912 255.676 302.812 255.666 302.696 255.614C302.574 255.56 302.47 255.475 302.393 255.374C302.255 255.189 302.267 255.033 302.267 255.067H303.267H304.267C304.267 254.84 304.229 254.488 303.993 254.174C303.717 253.805 303.315 253.676 302.974 253.676V254.676ZM303.267 255.067L302.267 255.068L302.315 289.174L303.315 289.173L304.315 289.172L304.267 255.065L303.267 255.067ZM303.315 289.173H302.315C302.315 289.156 302.315 288.958 302.486 288.753C302.686 288.512 302.946 288.466 303.071 288.466V289.466V290.466C303.36 290.466 303.741 290.371 304.023 290.033C304.275 289.73 304.315 289.385 304.315 289.173H303.315ZM303.071 289.466V288.466H298.677V289.466V290.466H303.071V289.466ZM298.677 289.466L299.581 289.04L290.915 270.632L290.01 271.058L289.105 271.484L297.772 289.892L298.677 289.466ZM290.01 271.058L289.01 271.078L289.376 289.096L290.376 289.075L291.376 289.055L291.01 271.037L290.01 271.058ZM290.376 289.075H289.376C289.376 289.002 289.406 288.78 289.616 288.603C289.793 288.454 289.951 288.466 289.912 288.466V289.466V290.466C290.183 290.466 290.572 290.413 290.904 290.133C291.269 289.826 291.376 289.409 291.376 289.075H290.376ZM315.977 289.222L314.992 289.044L314.977 289.132V289.222H315.977ZM322.178 254.871L321.208 254.629L321.2 254.661L321.194 254.694L322.178 254.871ZM329.917 254.871L330.902 254.7L330.896 254.664L330.887 254.629L329.917 254.871ZM335.874 289.222L336.869 289.122L336.865 289.086L336.859 289.051L335.874 289.222ZM329.868 289.222L330.863 289.122L330.861 289.099L330.858 289.077L329.868 289.222ZM329.331 285.56L330.32 285.415L330.195 284.56H329.331V285.56ZM322.52 285.56V284.56H321.656L321.53 285.415L322.52 285.56ZM321.982 289.222L320.993 289.077L320.99 289.099L320.987 289.122L321.982 289.222ZM326.279 266.175L327.269 266.03L327.267 266.019L326.279 266.175ZM325.986 264.319L326.974 264.164L324.993 264.202L325.986 264.319ZM325.767 266.175L326.754 266.333L326.757 266.313L326.76 266.293L325.767 266.175ZM323.521 280.213L322.533 280.055L322.348 281.213H323.521V280.213ZM328.33 280.213V281.213H329.487L329.32 280.068L328.33 280.213ZM315.977 289.222L316.961 289.399L323.162 255.049L322.178 254.871L321.194 254.694L314.992 289.044L315.977 289.222ZM322.178 254.871L323.148 255.114C323.126 255.2 323.062 255.366 322.888 255.506C322.711 255.647 322.526 255.676 322.422 255.676V254.676V253.676C322.188 253.676 321.897 253.737 321.638 253.944C321.383 254.148 321.262 254.413 321.208 254.629L322.178 254.871ZM322.422 254.676V255.676H329.673V254.676V253.676H322.422V254.676ZM329.673 254.676V255.676C329.569 255.676 329.384 255.647 329.207 255.506C329.033 255.366 328.968 255.2 328.947 255.114L329.917 254.871L330.887 254.629C330.833 254.413 330.712 254.148 330.456 253.944C330.198 253.737 329.907 253.676 329.673 253.676V254.676ZM329.917 254.871L328.932 255.042L334.889 289.393L335.874 289.222L336.859 289.051L330.902 254.7L329.917 254.871ZM335.874 289.222L334.879 289.321C334.875 289.286 334.854 289.034 335.057 288.78C335.282 288.498 335.578 288.466 335.679 288.466V289.466V290.466C335.926 290.466 336.328 290.393 336.618 290.03C336.886 289.695 336.889 289.321 336.869 289.122L335.874 289.222ZM335.679 289.466V288.466H330.137V289.466V290.466H335.679V289.466ZM330.137 289.466V288.466C330.217 288.466 330.425 288.488 330.62 288.665C330.814 288.842 330.855 289.045 330.863 289.122L329.868 289.222L328.873 289.321C328.897 289.561 328.991 289.887 329.275 290.145C329.559 290.404 329.894 290.466 330.137 290.466V289.466ZM329.868 289.222L330.858 289.077L330.32 285.415L329.331 285.56L328.342 285.705L328.879 289.367L329.868 289.222ZM329.331 285.56V284.56H322.52V285.56V286.56H329.331V285.56ZM322.52 285.56L321.53 285.415L320.993 289.077L321.982 289.222L322.972 289.367L323.509 285.705L322.52 285.56ZM321.982 289.222L320.987 289.122C320.993 289.069 321.023 288.877 321.202 288.698C321.397 288.503 321.622 288.466 321.738 288.466V289.466V290.466C322.001 290.466 322.34 290.388 322.616 290.112C322.877 289.851 322.956 289.538 322.977 289.321L321.982 289.222ZM321.738 289.466V288.466H316.172V289.466V290.466H321.738V289.466ZM316.172 289.466V288.466C316.327 288.466 316.603 288.526 316.806 288.78C316.976 288.992 316.977 289.196 316.977 289.222H315.977H314.977C314.977 289.41 315.01 289.736 315.245 290.03C315.513 290.366 315.886 290.466 316.172 290.466V289.466ZM326.279 266.175L327.267 266.019L326.974 264.164L325.986 264.319L324.999 264.475L325.292 266.331L326.279 266.175ZM325.986 264.319L324.993 264.202L324.774 266.057L325.767 266.175L326.76 266.293L326.979 264.437L325.986 264.319ZM325.767 266.175L324.779 266.017L322.533 280.055L323.521 280.213L324.508 280.371L326.754 266.333L325.767 266.175ZM323.521 280.213V281.213H328.33V280.213V279.213H323.521V280.213ZM328.33 280.213L329.32 280.068L327.269 266.03L326.279 266.175L325.29 266.32L327.341 280.358L328.33 280.213ZM348.999 289.222L347.999 289.22V289.222H348.999ZM349.048 254.92L350.048 254.921V254.92H349.048ZM355.103 254.92L356.103 254.922V254.92H355.103ZM355.054 283.314L354.054 283.312L354.052 284.314H355.054V283.314ZM365.356 289.466V288.466H349.194V289.466V290.466H365.356V289.466ZM349.194 289.466V288.466C349.35 288.466 349.625 288.526 349.829 288.78C349.998 288.992 349.999 289.196 349.999 289.222H348.999H347.999C347.999 289.41 348.032 289.736 348.267 290.03C348.536 290.366 348.909 290.466 349.194 290.466V289.466ZM348.999 289.222L349.999 289.223L350.048 254.921L349.048 254.92L348.048 254.919L347.999 289.22L348.999 289.222ZM349.048 254.92H350.048C350.048 254.993 350.029 255.231 349.816 255.444C349.603 255.657 349.365 255.676 349.292 255.676V254.676V253.676C349.056 253.676 348.696 253.735 348.402 254.03C348.107 254.324 348.048 254.685 348.048 254.92H349.048ZM349.292 254.676V255.676H354.858V254.676V253.676H349.292V254.676ZM354.858 254.676V255.676C354.786 255.676 354.547 255.657 354.334 255.444C354.121 255.231 354.103 254.993 354.103 254.92H355.103H356.103C356.103 254.685 356.043 254.324 355.749 254.03C355.454 253.735 355.094 253.676 354.858 253.676V254.676ZM355.103 254.92L354.103 254.918L354.054 283.312L355.054 283.314L356.054 283.315L356.103 254.922L355.103 254.92ZM355.054 283.314V284.314H365.356V283.314V282.314H355.054V283.314ZM365.356 283.314V284.314C365.284 284.314 365.045 284.295 364.832 284.082C364.619 283.869 364.601 283.631 364.601 283.558H365.601H366.601C366.601 283.322 366.541 282.962 366.247 282.668C365.952 282.373 365.592 282.314 365.356 282.314V283.314ZM365.601 283.558H364.601V289.222H365.601H366.601V283.558H365.601ZM365.601 289.222H364.601C364.601 289.149 364.619 288.911 364.832 288.698C365.045 288.485 365.284 288.466 365.356 288.466V289.466V290.466C365.592 290.466 365.952 290.406 366.247 290.112C366.541 289.818 366.601 289.457 366.601 289.222H365.601Z" fill="black"/>
<path d="M147.334 250.466H140.869C140.817 250.466 140.791 250.433 140.791 250.368L140.811 236.628C140.811 236.576 140.837 236.55 140.889 236.55H147.314C147.367 236.55 147.393 236.583 147.393 236.648V238.884C147.393 238.936 147.367 238.962 147.314 238.962H143.213V242.087H147.314C147.367 242.087 147.393 242.113 147.393 242.165L147.412 244.431C147.412 244.483 147.386 244.509 147.334 244.509H143.213V248.005H147.334C147.386 248.005 147.412 248.038 147.412 248.103V250.388C147.412 250.44 147.386 250.466 147.334 250.466ZM172.967 250.466H170.965C170.861 250.466 170.809 250.42 170.809 250.329L170.789 236.706C170.789 236.602 170.842 236.55 170.946 236.55H172.752L176.131 244.431L176.034 236.706C176.034 236.602 176.092 236.55 176.209 236.55H178.192C178.27 236.55 178.309 236.602 178.309 236.706L178.329 250.349C178.329 250.427 178.296 250.466 178.231 250.466H176.473L173.006 243.103L173.153 250.31C173.153 250.414 173.091 250.466 172.967 250.466ZM205.348 250.446L201.764 250.466C201.699 250.466 201.667 250.433 201.667 250.368L201.706 236.628C201.706 236.576 201.732 236.55 201.784 236.55L205.524 236.53C206.266 236.511 206.937 236.68 207.536 237.038C208.141 237.396 208.623 237.881 208.981 238.493C209.346 239.099 209.528 239.769 209.528 240.505V246.247C209.528 247.015 209.343 247.719 208.971 248.357C208.594 248.988 208.093 249.493 207.468 249.87C206.843 250.241 206.136 250.433 205.348 250.446ZM205.524 238.923L204.128 238.943L204.108 248.005H205.348C205.843 248.005 206.26 247.833 206.598 247.487C206.937 247.142 207.106 246.729 207.106 246.247V240.486C207.106 240.062 206.95 239.694 206.638 239.382C206.325 239.063 205.954 238.91 205.524 238.923ZM235.044 250.466H232.798C232.733 250.466 232.7 250.433 232.7 250.368L232.739 236.628C232.739 236.576 232.765 236.55 232.818 236.55H239.224C239.289 236.55 239.321 236.576 239.321 236.628V238.884C239.321 238.936 239.295 238.962 239.243 238.962H235.142V242.068H239.243C239.295 242.068 239.321 242.1 239.321 242.165L239.341 244.431C239.341 244.483 239.308 244.509 239.243 244.509H235.142V250.368C235.142 250.433 235.109 250.466 235.044 250.466ZM265.082 250.466H262.816C262.751 250.466 262.718 250.433 262.718 250.368L262.738 236.628C262.738 236.576 262.764 236.55 262.816 236.55H265.062C265.114 236.55 265.14 236.576 265.14 236.628L265.16 250.368C265.16 250.433 265.134 250.466 265.082 250.466ZM295.061 250.466H288.596C288.544 250.466 288.518 250.433 288.518 250.368L288.537 236.628C288.537 236.576 288.563 236.55 288.615 236.55H295.041C295.093 236.55 295.119 236.583 295.119 236.648V238.884C295.119 238.936 295.093 238.962 295.041 238.962H290.939V242.087H295.041C295.093 242.087 295.119 242.113 295.119 242.165L295.139 244.431C295.139 244.483 295.113 244.509 295.061 244.509H290.939V248.005H295.061C295.113 248.005 295.139 248.038 295.139 248.103V250.388C295.139 250.44 295.113 250.466 295.061 250.466ZM325.059 250.466H318.594C318.542 250.466 318.516 250.433 318.516 250.368L318.536 236.648C318.536 236.583 318.568 236.55 318.633 236.55H320.86C320.925 236.55 320.957 236.583 320.957 236.648L320.938 248.005H325.059C325.124 248.005 325.157 248.038 325.157 248.103V250.368C325.157 250.433 325.124 250.466 325.059 250.466ZM351.747 250.446L348.163 250.466C348.098 250.466 348.065 250.433 348.065 250.368L348.104 236.628C348.104 236.576 348.13 236.55 348.182 236.55L351.923 236.53C352.665 236.511 353.335 236.68 353.934 237.038C354.54 237.396 355.022 237.881 355.38 238.493C355.744 239.099 355.927 239.769 355.927 240.505V246.247C355.927 247.015 355.741 247.719 355.37 248.357C354.992 248.988 354.491 249.493 353.866 249.87C353.241 250.241 352.535 250.433 351.747 250.446ZM351.923 238.923L350.526 238.943L350.507 248.005H351.747C352.242 248.005 352.658 247.833 352.997 247.487C353.335 247.142 353.505 246.729 353.505 246.247V240.486C353.505 240.062 353.348 239.694 353.036 239.382C352.723 239.063 352.352 238.91 351.923 238.923Z" fill="black"/>
<path d="M140.791 250.368L140.041 250.367V250.368H140.791ZM140.811 236.628L141.561 236.629V236.628H140.811ZM143.213 238.962V238.212H142.463V238.962H143.213ZM143.213 242.087H142.463V242.837H143.213V242.087ZM147.393 242.165H146.643L146.643 242.172L147.393 242.165ZM147.412 244.431H148.162L148.162 244.424L147.412 244.431ZM143.213 244.509V243.759H142.463V244.509H143.213ZM143.213 248.005H142.463V248.755H143.213V248.005ZM147.334 250.466V249.716H140.869V250.466V251.216H147.334V250.466ZM140.869 250.466V249.716C141.009 249.716 141.232 249.768 141.396 249.973C141.535 250.146 141.541 250.321 141.541 250.368H140.791H140.041C140.041 250.481 140.06 250.704 140.225 250.91C140.415 251.148 140.678 251.216 140.869 251.216V250.466ZM140.791 250.368L141.541 250.369L141.561 236.629L140.811 236.628L140.061 236.627L140.041 250.367L140.791 250.368ZM140.811 236.628H141.561C141.561 236.718 141.538 236.923 141.36 237.1C141.183 237.277 140.978 237.3 140.889 237.3V236.55V235.8C140.747 235.8 140.503 235.836 140.3 236.039C140.096 236.242 140.061 236.486 140.061 236.628H140.811ZM140.889 236.55V237.3H147.314V236.55V235.8H140.889V236.55ZM147.314 236.55V237.3C147.175 237.3 146.952 237.248 146.787 237.043C146.649 236.87 146.643 236.695 146.643 236.648H147.393H148.143C148.143 236.535 148.123 236.312 147.959 236.106C147.769 235.868 147.506 235.8 147.314 235.8V236.55ZM147.393 236.648H146.643V238.884H147.393H148.143V236.648H147.393ZM147.393 238.884H146.643C146.643 238.794 146.665 238.589 146.843 238.412C147.02 238.235 147.225 238.212 147.314 238.212V238.962V239.712C147.456 239.712 147.7 239.676 147.903 239.473C148.107 239.27 148.143 239.026 148.143 238.884H147.393ZM147.314 238.962V238.212H143.213V238.962V239.712H147.314V238.962ZM143.213 238.962H142.463V242.087H143.213H143.963V238.962H143.213ZM143.213 242.087V242.837H147.314V242.087V241.337H143.213V242.087ZM147.314 242.087V242.837C147.225 242.837 147.02 242.814 146.843 242.637C146.665 242.46 146.643 242.255 146.643 242.165H147.393H148.143C148.143 242.024 148.107 241.78 147.903 241.576C147.7 241.373 147.456 241.337 147.314 241.337V242.087ZM147.393 242.165L146.643 242.172L146.662 244.437L147.412 244.431L148.162 244.424L148.143 242.159L147.393 242.165ZM147.412 244.431H146.662C146.662 244.341 146.685 244.136 146.862 243.959C147.039 243.782 147.244 243.759 147.334 243.759V244.509V245.259C147.476 245.259 147.72 245.223 147.923 245.02C148.126 244.816 148.162 244.572 148.162 244.431H147.412ZM147.334 244.509V243.759H143.213V244.509V245.259H147.334V244.509ZM143.213 244.509H142.463V248.005H143.213H143.963V244.509H143.213ZM143.213 248.005V248.755H147.334V248.005V247.255H143.213V248.005ZM147.334 248.005V248.755C147.194 248.755 146.971 248.703 146.807 248.498C146.668 248.325 146.662 248.15 146.662 248.103H147.412H148.162C148.162 247.99 148.143 247.767 147.978 247.561C147.788 247.323 147.526 247.255 147.334 247.255V248.005ZM147.412 248.103H146.662V250.388H147.412H148.162V248.103H147.412ZM147.412 250.388H146.662C146.662 250.298 146.685 250.093 146.862 249.916C147.039 249.739 147.244 249.716 147.334 249.716V250.466V251.216C147.476 251.216 147.72 251.18 147.923 250.977C148.126 250.773 148.162 250.529 148.162 250.388H147.412ZM170.809 250.329H171.559V250.328L170.809 250.329ZM170.789 236.706H170.039V236.707L170.789 236.706ZM172.752 236.55L173.442 236.254L173.247 235.8H172.752V236.55ZM176.131 244.431L175.442 244.726L176.881 244.421L176.131 244.431ZM176.034 236.706H175.284L175.284 236.716L176.034 236.706ZM178.309 236.706H177.559L177.559 236.707L178.309 236.706ZM178.329 250.349H179.079L179.079 250.348L178.329 250.349ZM176.473 250.466L175.794 250.785L175.997 251.216H176.473V250.466ZM173.006 243.103L173.685 242.783L172.256 243.118L173.006 243.103ZM173.153 250.31H173.903V250.302L173.903 250.294L173.153 250.31ZM172.967 250.466V249.716H170.965V250.466V251.216H172.967V250.466ZM170.965 250.466V249.716C171.006 249.716 171.177 249.723 171.342 249.867C171.526 250.029 171.559 250.231 171.559 250.329H170.809H170.059C170.059 250.518 170.118 250.789 170.354 250.996C170.572 251.186 170.82 251.216 170.965 251.216V250.466ZM170.809 250.329L171.559 250.328L171.539 236.705L170.789 236.706L170.039 236.707L170.059 250.33L170.809 250.329ZM170.789 236.706H171.539C171.539 236.77 171.523 236.955 171.359 237.119C171.195 237.284 171.009 237.3 170.946 237.3V236.55V235.8C170.778 235.8 170.514 235.842 170.298 236.059C170.082 236.275 170.039 236.539 170.039 236.706H170.789ZM170.946 236.55V237.3H172.752V236.55V235.8H170.946V236.55ZM172.752 236.55L172.063 236.845L175.442 244.726L176.131 244.431L176.821 244.135L173.442 236.254L172.752 236.55ZM176.131 244.431L176.881 244.421L176.784 236.697L176.034 236.706L175.284 236.716L175.381 244.44L176.131 244.431ZM176.034 236.706H176.784C176.784 236.794 176.755 236.99 176.576 237.15C176.414 237.294 176.246 237.3 176.209 237.3V236.55V235.8C176.056 235.8 175.8 235.832 175.579 236.028C175.342 236.24 175.284 236.514 175.284 236.706H176.034ZM176.209 236.55V237.3H178.192V236.55V235.8H176.209V236.55ZM178.192 236.55V237.3C178.048 237.3 177.831 237.241 177.68 237.039C177.559 236.878 177.559 236.726 177.559 236.706H178.309H179.059C179.059 236.582 179.04 236.352 178.88 236.139C178.689 235.885 178.414 235.8 178.192 235.8V236.55ZM178.309 236.706L177.559 236.707L177.579 250.35L178.329 250.349L179.079 250.348L179.059 236.705L178.309 236.706ZM178.329 250.349H177.579C177.579 250.302 177.585 250.128 177.728 249.957C177.892 249.759 178.108 249.716 178.231 249.716V250.466V251.216C178.419 251.216 178.683 251.153 178.88 250.917C179.055 250.707 179.079 250.474 179.079 250.349H178.329ZM178.231 250.466V249.716H176.473V250.466V251.216H178.231V250.466ZM176.473 250.466L177.152 250.146L173.685 242.783L173.006 243.103L172.328 243.422L175.794 250.785L176.473 250.466ZM173.006 243.103L172.256 243.118L172.403 250.325L173.153 250.31L173.903 250.294L173.756 243.087L173.006 243.103ZM173.153 250.31H172.403C172.403 250.209 172.439 250.009 172.623 249.853C172.783 249.719 172.942 249.716 172.967 249.716V250.466V251.216C173.116 251.216 173.368 251.187 173.589 251.001C173.836 250.793 173.903 250.514 173.903 250.31H173.153ZM205.348 250.446L205.353 251.196L205.361 251.196L205.348 250.446ZM201.764 250.466V251.216L201.769 251.216L201.764 250.466ZM201.667 250.368L200.917 250.366V250.368H201.667ZM201.706 236.628L202.456 236.63V236.628H201.706ZM201.784 236.55V237.3L201.788 237.3L201.784 236.55ZM205.524 236.53L205.528 237.28L205.536 237.28L205.544 237.28L205.524 236.53ZM207.536 237.038L207.151 237.682L207.154 237.684L207.536 237.038ZM208.981 238.493L208.334 238.872L208.339 238.88L208.981 238.493ZM208.971 248.357L209.615 248.742L209.62 248.734L208.971 248.357ZM207.468 249.87L207.85 250.515L207.855 250.512L207.468 249.87ZM205.524 238.923L205.535 239.673L205.547 239.673L205.524 238.923ZM204.128 238.943L204.117 238.193L203.379 238.203L203.378 238.941L204.128 238.943ZM204.108 248.005L203.358 248.003L203.357 248.755H204.108V248.005ZM206.637 239.382L206.102 239.907L206.107 239.912L206.637 239.382ZM205.348 250.446L205.344 249.696L201.76 249.716L201.764 250.466L201.769 251.216L205.353 251.196L205.348 250.446ZM201.764 250.466V249.716C201.848 249.716 202.048 249.737 202.222 249.911C202.396 250.085 202.417 250.285 202.417 250.368H201.667H200.917C200.917 250.516 200.954 250.765 201.161 250.972C201.367 251.178 201.616 251.216 201.764 251.216V250.466ZM201.667 250.368L202.417 250.37L202.456 236.63L201.706 236.628L200.956 236.626L200.917 250.366L201.667 250.368ZM201.706 236.628H202.456C202.456 236.718 202.433 236.923 202.256 237.1C202.078 237.277 201.874 237.3 201.784 237.3V236.55V235.8C201.642 235.8 201.398 235.836 201.195 236.039C200.992 236.242 200.956 236.486 200.956 236.628H201.706ZM201.784 236.55L201.788 237.3L205.528 237.28L205.524 236.53L205.52 235.78L201.78 235.8L201.784 236.55ZM205.524 236.53L205.544 237.28C206.153 237.264 206.682 237.402 207.151 237.682L207.536 237.038L207.921 236.395C207.192 235.959 206.379 235.758 205.504 235.781L205.524 236.53ZM207.536 237.038L207.154 237.684C207.649 237.976 208.04 238.369 208.334 238.872L208.981 238.493L209.629 238.115C209.207 237.393 208.634 236.816 207.918 236.393L207.536 237.038ZM208.981 238.493L208.339 238.88C208.63 239.364 208.778 239.9 208.778 240.505H209.528H210.278C210.278 239.639 210.062 238.834 209.624 238.106L208.981 238.493ZM209.528 240.505H208.778V246.247H209.528H210.278V240.505H209.528ZM209.528 246.247H208.778C208.778 246.889 208.625 247.461 208.323 247.98L208.971 248.357L209.62 248.734C210.06 247.976 210.278 247.142 210.278 246.247H209.528ZM208.971 248.357L208.328 247.972C208.013 248.499 207.599 248.915 207.08 249.228L207.468 249.87L207.855 250.512C208.586 250.071 209.175 249.477 209.615 248.741L208.971 248.357ZM207.468 249.87L207.085 249.225C206.581 249.524 206.005 249.685 205.336 249.697L205.348 250.446L205.361 251.196C206.268 251.181 207.104 250.958 207.85 250.515L207.468 249.87ZM205.524 238.923L205.514 238.173L204.117 238.193L204.128 238.943L204.138 239.692L205.535 239.673L205.524 238.923ZM204.128 238.943L203.378 238.941L203.358 248.003L204.108 248.005L204.858 248.007L204.878 238.944L204.128 238.943ZM204.108 248.005V248.755H205.348V248.005V247.255H204.108V248.005ZM205.348 248.005V248.755C206.039 248.755 206.651 248.505 207.134 248.013L206.598 247.487L206.063 246.962C205.869 247.16 205.647 247.255 205.348 247.255V248.005ZM206.598 247.487L207.134 248.013C207.609 247.528 207.856 246.926 207.856 246.247H207.106H206.356C206.356 246.532 206.265 246.757 206.063 246.962L206.598 247.487ZM207.106 246.247H207.856V240.486H207.106H206.356V246.247H207.106ZM207.106 240.486H207.856C207.856 239.854 207.614 239.298 207.168 238.852L206.637 239.382L206.107 239.912C206.286 240.091 206.356 240.271 206.356 240.486H207.106ZM206.637 239.382L207.173 238.857C206.721 238.395 206.15 238.154 205.502 238.173L205.524 238.923L205.547 239.673C205.758 239.666 205.929 239.731 206.102 239.907L206.637 239.382ZM232.7 250.368L231.95 250.366V250.368H232.7ZM232.739 236.628L233.489 236.63V236.628H232.739ZM235.142 238.962V238.212H234.392V238.962H235.142ZM235.142 242.068H234.392V242.818H235.142V242.068ZM239.321 242.165H238.571L238.572 242.172L239.321 242.165ZM239.341 244.431H240.091L240.091 244.424L239.341 244.431ZM235.142 244.509V243.759H234.392V244.509H235.142ZM235.044 250.466V249.716H232.798V250.466V251.216H235.044V250.466ZM232.798 250.466V249.716C232.881 249.716 233.081 249.737 233.255 249.911C233.429 250.085 233.45 250.285 233.45 250.368H232.7H231.95C231.95 250.516 231.988 250.765 232.194 250.972C232.401 251.178 232.65 251.216 232.798 251.216V250.466ZM232.7 250.368L233.45 250.37L233.489 236.63L232.739 236.628L231.989 236.626L231.95 250.366L232.7 250.368ZM232.739 236.628H233.489C233.489 236.718 233.467 236.923 233.289 237.1C233.112 237.277 232.907 237.3 232.818 237.3V236.55V235.8C232.676 235.8 232.432 235.836 232.229 236.039C232.025 236.242 231.989 236.486 231.989 236.628H232.739ZM232.818 236.55V237.3H239.224V236.55V235.8H232.818V236.55ZM239.224 236.55V237.3C239.176 237.3 239.002 237.294 238.829 237.155C238.623 236.991 238.571 236.768 238.571 236.628H239.321H240.071C240.071 236.437 240.003 236.174 239.766 235.984C239.56 235.819 239.337 235.8 239.224 235.8V236.55ZM239.321 236.628H238.571V238.884H239.321H240.071V236.628H239.321ZM239.321 238.884H238.571C238.571 238.794 238.594 238.589 238.772 238.412C238.949 238.235 239.154 238.212 239.243 238.212V238.962V239.712C239.385 239.712 239.629 239.676 239.832 239.473C240.036 239.27 240.071 239.026 240.071 238.884H239.321ZM239.243 238.962V238.212H235.142V238.962V239.712H239.243V238.962ZM235.142 238.962H234.392V242.068H235.142H235.892V238.962H235.142ZM235.142 242.068V242.818H239.243V242.068V241.318H235.142V242.068ZM239.243 242.068V242.818C239.104 242.818 238.88 242.766 238.716 242.56C238.578 242.387 238.571 242.213 238.571 242.165H239.321H240.071C240.071 242.053 240.052 241.829 239.888 241.623C239.697 241.386 239.435 241.318 239.243 241.318V242.068ZM239.321 242.165L238.572 242.172L238.591 244.437L239.341 244.431L240.091 244.424L240.071 242.159L239.321 242.165ZM239.341 244.431H238.591C238.591 244.291 238.643 244.068 238.848 243.904C239.021 243.765 239.196 243.759 239.243 243.759V244.509V245.259C239.356 245.259 239.579 245.24 239.785 245.075C240.023 244.885 240.091 244.622 240.091 244.431H239.341ZM239.243 244.509V243.759H235.142V244.509V245.259H239.243V244.509ZM235.142 244.509H234.392V250.368H235.142H235.892V244.509H235.142ZM235.142 250.368H234.392C234.392 250.285 234.413 250.085 234.587 249.911C234.761 249.737 234.961 249.716 235.044 249.716V250.466V251.216C235.192 251.216 235.441 251.178 235.648 250.972C235.854 250.765 235.892 250.516 235.892 250.368H235.142ZM262.718 250.368L261.968 250.367V250.368H262.718ZM262.738 236.628L263.488 236.629V236.628H262.738ZM265.14 236.628H264.39V236.629L265.14 236.628ZM265.16 250.368H265.91V250.367L265.16 250.368ZM265.082 250.466V249.716H262.816V250.466V251.216H265.082V250.466ZM262.816 250.466V249.716C262.899 249.716 263.099 249.737 263.273 249.911C263.447 250.085 263.468 250.285 263.468 250.368H262.718H261.968C261.968 250.516 262.006 250.765 262.212 250.972C262.419 251.178 262.668 251.216 262.816 251.216V250.466ZM262.718 250.368L263.468 250.369L263.488 236.629L262.738 236.628L261.988 236.627L261.968 250.367L262.718 250.368ZM262.738 236.628H263.488C263.488 236.718 263.465 236.923 263.288 237.1C263.111 237.277 262.906 237.3 262.816 237.3V236.55V235.8C262.674 235.8 262.43 235.836 262.227 236.039C262.024 236.242 261.988 236.486 261.988 236.628H262.738ZM262.816 236.55V237.3H265.062V236.55V235.8H262.816V236.55ZM265.062 236.55V237.3C264.973 237.3 264.768 237.277 264.59 237.1C264.413 236.923 264.39 236.718 264.39 236.628H265.14H265.89C265.89 236.486 265.854 236.242 265.651 236.039C265.448 235.836 265.204 235.8 265.062 235.8V236.55ZM265.14 236.628L264.39 236.629L264.41 250.369L265.16 250.368L265.91 250.367L265.89 236.627L265.14 236.628ZM265.16 250.368H264.41C264.41 250.321 264.416 250.146 264.555 249.973C264.719 249.768 264.942 249.716 265.082 249.716V250.466V251.216C265.273 251.216 265.536 251.148 265.726 250.91C265.891 250.704 265.91 250.481 265.91 250.368H265.16ZM288.518 250.368L287.768 250.367V250.368H288.518ZM288.537 236.628L289.287 236.629V236.628H288.537ZM290.939 238.962V238.212H290.189V238.962H290.939ZM290.939 242.087H290.189V242.837H290.939V242.087ZM295.119 242.165H294.369L294.369 242.172L295.119 242.165ZM295.139 244.431H295.889L295.889 244.424L295.139 244.431ZM290.939 244.509V243.759H290.189V244.509H290.939ZM290.939 248.005H290.189V248.755H290.939V248.005ZM295.061 250.466V249.716H288.596V250.466V251.216H295.061V250.466ZM288.596 250.466V249.716C288.735 249.716 288.959 249.768 289.123 249.973C289.261 250.146 289.268 250.321 289.268 250.368H288.518H287.768C287.768 250.481 287.787 250.704 287.951 250.91C288.142 251.148 288.404 251.216 288.596 251.216V250.466ZM288.518 250.368L289.268 250.369L289.287 236.629L288.537 236.628L287.787 236.627L287.768 250.367L288.518 250.368ZM288.537 236.628H289.287C289.287 236.718 289.264 236.923 289.087 237.1C288.91 237.277 288.705 237.3 288.615 237.3V236.55V235.8C288.474 235.8 288.23 235.836 288.026 236.039C287.823 236.242 287.787 236.486 287.787 236.628H288.537ZM288.615 236.55V237.3H295.041V236.55V235.8H288.615V236.55ZM295.041 236.55V237.3C294.902 237.3 294.678 237.248 294.514 237.043C294.375 236.87 294.369 236.695 294.369 236.648H295.119H295.869C295.869 236.535 295.85 236.312 295.685 236.106C295.495 235.868 295.233 235.8 295.041 235.8V236.55ZM295.119 236.648H294.369V238.884H295.119H295.869V236.648H295.119ZM295.119 238.884H294.369C294.369 238.794 294.392 238.589 294.569 238.412C294.747 238.235 294.951 238.212 295.041 238.212V238.962V239.712C295.183 239.712 295.427 239.676 295.63 239.473C295.833 239.27 295.869 239.026 295.869 238.884H295.119ZM295.041 238.962V238.212H290.939V238.962V239.712H295.041V238.962ZM290.939 238.962H290.189V242.087H290.939H291.689V238.962H290.939ZM290.939 242.087V242.837H295.041V242.087V241.337H290.939V242.087ZM295.041 242.087V242.837C294.951 242.837 294.747 242.814 294.569 242.637C294.392 242.46 294.369 242.255 294.369 242.165H295.119H295.869C295.869 242.024 295.833 241.78 295.63 241.576C295.427 241.373 295.183 241.337 295.041 241.337V242.087ZM295.119 242.165L294.369 242.172L294.389 244.437L295.139 244.431L295.889 244.424L295.869 242.159L295.119 242.165ZM295.139 244.431H294.389C294.389 244.341 294.412 244.136 294.589 243.959C294.766 243.782 294.971 243.759 295.061 243.759V244.509V245.259C295.202 245.259 295.446 245.223 295.649 245.02C295.853 244.816 295.889 244.572 295.889 244.431H295.139ZM295.061 244.509V243.759H290.939V244.509V245.259H295.061V244.509ZM290.939 244.509H290.189V248.005H290.939H291.689V244.509H290.939ZM290.939 248.005V248.755H295.061V248.005V247.255H290.939V248.005ZM295.061 248.005V248.755C294.921 248.755 294.698 248.703 294.533 248.498C294.395 248.325 294.389 248.15 294.389 248.103H295.139H295.889C295.889 247.99 295.869 247.767 295.705 247.561C295.515 247.323 295.252 247.255 295.061 247.255V248.005ZM295.139 248.103H294.389V250.388H295.139H295.889V248.103H295.139ZM295.139 250.388H294.389C294.389 250.298 294.412 250.093 294.589 249.916C294.766 249.739 294.971 249.716 295.061 249.716V250.466V251.216C295.202 251.216 295.446 251.18 295.649 250.977C295.853 250.773 295.889 250.529 295.889 250.388H295.139ZM318.516 250.368L317.766 250.367V250.368H318.516ZM318.536 236.648L319.286 236.649V236.648H318.536ZM320.957 236.648L321.707 236.649V236.648H320.957ZM320.938 248.005L320.188 248.004L320.187 248.755H320.938V248.005ZM325.059 250.466V249.716H318.594V250.466V251.216H325.059V250.466ZM318.594 250.466V249.716C318.734 249.716 318.957 249.768 319.121 249.973C319.26 250.146 319.266 250.321 319.266 250.368H318.516H317.766C317.766 250.481 317.785 250.704 317.95 250.91C318.14 251.148 318.403 251.216 318.594 251.216V250.466ZM318.516 250.368L319.266 250.369L319.286 236.649L318.536 236.648L317.786 236.647L317.766 250.367L318.516 250.368ZM318.536 236.648H319.286C319.286 236.731 319.264 236.931 319.09 237.105C318.916 237.279 318.716 237.3 318.633 237.3V236.55V235.8C318.485 235.8 318.236 235.838 318.03 236.044C317.823 236.251 317.786 236.499 317.786 236.648H318.536ZM318.633 236.55V237.3H320.86V236.55V235.8H318.633V236.55ZM320.86 236.55V237.3C320.777 237.3 320.577 237.279 320.403 237.105C320.229 236.931 320.207 236.731 320.207 236.648H320.957H321.707C321.707 236.499 321.67 236.251 321.463 236.044C321.257 235.838 321.008 235.8 320.86 235.8V236.55ZM320.957 236.648L320.207 236.646L320.188 248.004L320.938 248.005L321.688 248.006L321.707 236.649L320.957 236.648ZM320.938 248.005V248.755H325.059V248.005V247.255H320.938V248.005ZM325.059 248.005V248.755C324.976 248.755 324.776 248.734 324.602 248.56C324.428 248.386 324.407 248.186 324.407 248.103H325.157H325.907C325.907 247.955 325.869 247.706 325.663 247.499C325.456 247.293 325.207 247.255 325.059 247.255V248.005ZM325.157 248.103H324.407V250.368H325.157H325.907V248.103H325.157ZM325.157 250.368H324.407C324.407 250.285 324.428 250.085 324.602 249.911C324.776 249.737 324.976 249.716 325.059 249.716V250.466V251.216C325.207 251.216 325.456 251.178 325.663 250.972C325.869 250.765 325.907 250.516 325.907 250.368H325.157ZM351.747 250.446L351.751 251.196L351.759 251.196L351.747 250.446ZM348.163 250.466V251.216L348.167 251.216L348.163 250.466ZM348.065 250.368L347.315 250.366V250.368H348.065ZM348.104 236.628L348.854 236.63V236.628H348.104ZM348.182 236.55V237.3L348.186 237.3L348.182 236.55ZM351.923 236.53L351.927 237.28L351.934 237.28L351.942 237.28L351.923 236.53ZM353.934 237.038L353.55 237.682L353.553 237.684L353.934 237.038ZM355.38 238.493L354.732 238.872L354.737 238.88L355.38 238.493ZM355.37 248.357L356.014 248.742L356.018 248.734L355.37 248.357ZM353.866 249.87L354.249 250.515L354.254 250.512L353.866 249.87ZM351.923 238.923L351.933 239.673L351.945 239.673L351.923 238.923ZM350.526 238.943L350.516 238.193L349.778 238.203L349.776 238.941L350.526 238.943ZM350.507 248.005L349.757 248.003L349.755 248.755H350.507V248.005ZM353.036 239.382L352.5 239.907L352.506 239.912L353.036 239.382ZM351.747 250.446L351.743 249.696L348.159 249.716L348.163 250.466L348.167 251.216L351.751 251.196L351.747 250.446ZM348.163 250.466V249.716C348.246 249.716 348.446 249.737 348.62 249.911C348.794 250.085 348.815 250.285 348.815 250.368H348.065H347.315C347.315 250.516 347.353 250.765 347.559 250.972C347.766 251.178 348.015 251.216 348.163 251.216V250.466ZM348.065 250.368L348.815 250.37L348.854 236.63L348.104 236.628L347.354 236.626L347.315 250.366L348.065 250.368ZM348.104 236.628H348.854C348.854 236.718 348.831 236.923 348.654 237.1C348.477 237.277 348.272 237.3 348.182 237.3V236.55V235.8C348.041 235.8 347.797 235.836 347.593 236.039C347.39 236.242 347.354 236.486 347.354 236.628H348.104ZM348.182 236.55L348.186 237.3L351.927 237.28L351.923 236.53L351.919 235.78L348.178 235.8L348.182 236.55ZM351.923 236.53L351.942 237.28C352.552 237.264 353.081 237.402 353.55 237.682L353.934 237.038L354.319 236.395C353.59 235.959 352.778 235.758 351.903 235.781L351.923 236.53ZM353.934 237.038L353.553 237.684C354.047 237.976 354.438 238.369 354.732 238.872L355.38 238.493L356.027 238.115C355.605 237.393 355.032 236.816 354.316 236.393L353.934 237.038ZM355.38 238.493L354.737 238.88C355.028 239.364 355.177 239.9 355.177 240.505H355.927H356.677C356.677 239.639 356.46 238.834 356.022 238.106L355.38 238.493ZM355.927 240.505H355.177V246.247H355.927H356.677V240.505H355.927ZM355.927 246.247H355.177C355.177 246.889 355.023 247.461 354.722 247.98L355.37 248.357L356.018 248.734C356.459 247.976 356.677 247.142 356.677 246.247H355.927ZM355.37 248.357L354.726 247.972C354.411 248.499 353.997 248.915 353.478 249.228L353.866 249.87L354.254 250.512C354.985 250.071 355.574 249.477 356.014 248.741L355.37 248.357ZM353.866 249.87L353.483 249.225C352.98 249.524 352.403 249.685 351.734 249.697L351.747 250.446L351.759 251.196C352.666 251.181 353.502 250.958 354.249 250.515L353.866 249.87ZM351.923 238.923L351.912 238.173L350.516 238.193L350.526 238.943L350.537 239.692L351.933 239.673L351.923 238.923ZM350.526 238.943L349.776 238.941L349.757 248.003L350.507 248.005L351.257 248.007L351.276 238.944L350.526 238.943ZM350.507 248.005V248.755H351.747V248.005V247.255H350.507V248.005ZM351.747 248.005V248.755C352.438 248.755 353.049 248.505 353.532 248.013L352.997 247.487L352.462 246.962C352.268 247.16 352.046 247.255 351.747 247.255V248.005ZM352.997 247.487L353.532 248.013C354.008 247.528 354.255 246.926 354.255 246.247H353.505H352.755C352.755 246.532 352.663 246.757 352.462 246.962L352.997 247.487ZM353.505 246.247H354.255V240.486H353.505H352.755V246.247H353.505ZM353.505 240.486H354.255C354.255 239.854 354.012 239.298 353.566 238.852L353.036 239.382L352.506 239.912C352.684 240.091 352.755 240.271 352.755 240.486H353.505ZM353.036 239.382L353.572 238.857C353.119 238.395 352.548 238.154 351.9 238.173L351.923 238.923L351.945 239.673C352.157 239.666 352.328 239.731 352.5 239.907L353.036 239.382Z" fill="black"/>
<line x1="112" y1="243.466" x2="130" y2="243.466" stroke="black" stroke-width="2"/>
<line x1="367" y1="243.466" x2="385" y2="243.466" stroke="black" stroke-width="2"/>
</g>
<path d="M276.627 291C276.65 292.75 275.245 294.854 272.412 297.312C268.046 302.261 268.11 304.464 268.18 306.846L268.184 306.958C268.191 307.222 268.197 307.489 268.197 307.763V316.819L233.775 307.763C233.073 307.298 231.668 305.951 231.668 304.279C230.525 295.968 230.001 293.394 228.753 291H276.627Z" fill="black"/>
<path d="M224.406 213.121C226.795 209.872 231.406 208.108 235.359 209.222C237.992 209.965 270.811 220.232 270.929 220.269C276.199 222.219 276.199 225.468 270.929 230.017C269.059 232.126 268.057 233.7 267.525 235H232.51C230.738 222.489 230.527 225.733 224.818 215.72C224.483 214.838 224.16 214.42 224.406 213.121Z" fill="black"/>
</g>
<defs>
<clipPath id="clip0_1_2">
<rect width="500" height="500" fill="white"/>
</clipPath>
<clipPath id="clip1_1_2">
<rect width="283.333" height="56.8627" fill="white" transform="translate(108 234.466)"/>
</clipPath>
</defs>
</svg>
