<svg xmlns="http://www.w3.org/2000/svg" fill="currentColor" viewBox="0 0 24 24" class="MapButton__Icon-hkYFYc gkzrKz"><g clip-path="url(#map02_svg__a)"><path d="M12 15.786c6.628 0 12 1.151 12 2.571s-5.372 2.572-12 2.572c-6.627 0-12-1.151-12-2.572 0-.873 2.034-1.645 5.143-2.11v2.968h4V15.86A55 55 0 0 1 12 15.786m-2.857.074c-1.456.076-2.807.209-4 .387v-4.461h4zM5.143 3.214h4v7.429h-4zM11.429 2.071h4V9.5h-4z"></path><path d="M11.429 10.643h4v7.429h-4zM16 8.357l3.429-2.286V8.93L16 11.214z"></path></g><defs><clipPath id="map02_svg__a"><path fill="#fff" d="M0 0h24v24H0z"></path></clipPath></defs></svg>